<svg class="marks" width="264" height="246" viewBox="0 0 264 246" version="1.1" xmlns="http://www.w3.org/2000/svg" xmlns:xlink="http://www.w3.org/1999/xlink"><g transform="translate(52,6)"><g class="mark-group role-frame root"><g transform="translate(0,0)"><path class="background" d="M0.5,0.5h200v200h-200Z" style="fill: none; stroke: #ddd;"></path><g><g class="mark-group role-axis"><g transform="translate(0.5,200.5)"><path class="background" d="M0,0h0v0h0Z" style="pointer-events: none; fill: none;"></path><g><g class="mark-rule role-axis-grid" style="pointer-events: none;"><line transform="translate(0,-200)" x2="0" y2="200" style="fill: none; stroke: #ddd; stroke-width: 1; opacity: 1;"></line><line transform="translate(33,-200)" x2="0" y2="200" style="fill: none; stroke: #ddd; stroke-width: 1; opacity: 1;"></line><line transform="translate(67,-200)" x2="0" y2="200" style="fill: none; stroke: #ddd; stroke-width: 1; opacity: 1;"></line><line transform="translate(100,-200)" x2="0" y2="200" style="fill: none; stroke: #ddd; stroke-width: 1; opacity: 1;"></line><line transform="translate(133,-200)" x2="0" y2="200" style="fill: none; stroke: #ddd; stroke-width: 1; opacity: 1;"></line><line transform="translate(167,-200)" x2="0" y2="200" style="fill: none; stroke: #ddd; stroke-width: 1; opacity: 1;"></line><line transform="translate(200,-200)" x2="0" y2="200" style="fill: none; stroke: #ddd; stroke-width: 1; opacity: 1;"></line></g></g></g></g><g class="mark-group role-axis"><g transform="translate(0.5,0.5)"><path class="background" d="M0,0h0v0h0Z" style="pointer-events: none; fill: none;"></path><g><g class="mark-rule role-axis-grid" style="pointer-events: none;"><line transform="translate(0,191)" x2="200" y2="0" style="fill: none; stroke: #ddd; stroke-width: 1; opacity: 1;"></line><line transform="translate(0,145)" x2="200" y2="0" style="fill: none; stroke: #ddd; stroke-width: 1; opacity: 1;"></line><line transform="translate(0,100)" x2="200" y2="0" style="fill: none; stroke: #ddd; stroke-width: 1; opacity: 1;"></line><line transform="translate(0,55)" x2="200" y2="0" style="fill: none; stroke: #ddd; stroke-width: 1; opacity: 1;"></line><line transform="translate(0,9)" x2="200" y2="0" style="fill: none; stroke: #ddd; stroke-width: 1; opacity: 1;"></line></g></g></g></g><g class="mark-rect role-mark layer_0_marks"><path d="M-7,181.95297805642633h14v1h-14Z" style="fill: #4c78a8; opacity: 0.7;"></path><path d="M9.655258955053618,155.34415584415584h14v1h-14Z" style="fill: #4c78a8; opacity: 0.7;"></path><path d="M26.310517910107237,173.52597402597402h14v1h-14Z" style="fill: #4c78a8; opacity: 0.7;"></path><path d="M43.01140771161305,184.28977272727272h14v1h-14Z" style="fill: #4c78a8; opacity: 0.7;"></path><path d="M59.66666666666666,141.25925925925927h14v1h-14Z" style="fill: #4c78a8; opacity: 0.7;"></path><path d="M76.32192562172028,158.28787878787878h14v1h-14Z" style="fill: #4c78a8; opacity: 0.7;"></path><path d="M92.97718457677391,147.9024064171123h14v1h-14Z" style="fill: #4c78a8; opacity: 0.7;"></path><path d="M109.67807437827973,136.0340909090909h14v1h-14Z" style="fill: #4c78a8; opacity: 0.7;"></path><path d="M126.33333333333331,126.1502525252525h14v1h-14Z" style="fill: #4c78a8; opacity: 0.7;"></path><path d="M142.98859228838694,120.28526645768025h14v1h-14Z" style="fill: #4c78a8; opacity: 0.7;"></path><path d="M159.64385124344057,42.29702194357361h14v1h-14Z" style="fill: #4c78a8; opacity: 0.7;"></path><path d="M193,56.471212121212034h14v1h-14Z" style="fill: #4c78a8; opacity: 0.7;"></path></g><g class="mark-rect role-mark layer_1_marks"><path d="M-7,148.71630094043888h14v1h-14Z" style="fill: #4c78a8; opacity: 0.7;"></path><path d="M9.655258955053618,112.81168831168831h14v1h-14Z" style="fill: #4c78a8; opacity: 0.7;"></path><path d="M26.310517910107237,140.7094155844156h14v1h-14Z" style="fill: #4c78a8; opacity: 0.7;"></path><path d="M43.01140771161305,157.9090909090909h14v1h-14Z" style="fill: #4c78a8; opacity: 0.7;"></path><path d="M59.66666666666666,99.83670033670035h14v1h-14Z" style="fill: #4c78a8; opacity: 0.7;"></path><path d="M76.32192562172028,127.37121212121212h14v1h-14Z" style="fill: #4c78a8; opacity: 0.7;"></path><path d="M92.97718457677391,111.9331550802139h14v1h-14Z" style="fill: #4c78a8; opacity: 0.7;"></path><path d="M109.67807437827973,91.37905844155844h14v1h-14Z" style="fill: #4c78a8; opacity: 0.7;"></path><path d="M126.33333333333331,87.02335858585857h14v1h-14Z" style="fill: #4c78a8; opacity: 0.7;"></path><path d="M142.98859228838694,76.95924764890289h14v1h-14Z" style="fill: #4c78a8; opacity: 0.7;"></path><path d="M159.64385124344057,-0.28605015673983303h14v1h-14Z" style="fill: #4c78a8; opacity: 0.7;"></path><path d="M193,32.268560606060504h14v1h-14Z" style="fill: #4c78a8; opacity: 0.7;"></path></g><g class="mark-rule role-mark layer_2_marks"><line transform="translate(0,182.45297805642633)" x2="0" y2="-33.23667711598745" style="fill: none; stroke: black;"></line><line transform="translate(16.65525895505362,155.84415584415584)" x2="0" y2="-42.53246753246752" style="fill: none; stroke: black;"></line><line transform="translate(33.31051791010724,174.02597402597402)" x2="0" y2="-32.81655844155841" style="fill: none; stroke: black;"></line><line transform="translate(50.01140771161305,184.78977272727272)" x2="0" y2="-26.380681818181813" style="fill: none; stroke: black;"></line><line transform="translate(66.66666666666666,141.75925925925927)" x2="0" y2="-41.42255892255892" style="fill: none; stroke: black;"></line><line transform="translate(83.32192562172028,158.78787878787878)" x2="0" y2="-30.916666666666657" style="fill: none; stroke: black;"></line><line transform="translate(99.97718457677391,148.4024064171123)" x2="0" y2="-35.96925133689841" style="fill: none; stroke: black;"></line><line transform="translate(116.67807437827973,136.5340909090909)" x2="0" y2="-44.655032467532465" style="fill: none; stroke: black;"></line><line transform="translate(133.33333333333331,126.6502525252525)" x2="0" y2="-39.12689393939392" style="fill: none; stroke: black;"></line><line transform="translate(149.98859228838694,120.78526645768025)" x2="0" y2="-43.32601880877736" style="fill: none; stroke: black;"></line><line transform="translate(166.64385124344057,42.79702194357361)" x2="0" y2="-42.583072100313444" style="fill: none; stroke: black;"></line><line transform="translate(200,56.971212121212034)" x2="0" y2="-24.20265151515153" style="fill: none; stroke: black;"></line></g><g class="mark-group role-axis"><g transform="translate(0.5,200.5)"><path class="background" d="M0,0h0v0h0Z" style="pointer-events: none; fill: none;"></path><g><g class="mark-rule role-axis-tick" style="pointer-events: none;"><line transform="translate(0,0)" x2="0" y2="5" style="fill: none; stroke: #888; stroke-width: 1; opacity: 1;"></line><line transform="translate(33,0)" x2="0" y2="5" style="fill: none; stroke: #888; stroke-width: 1; opacity: 1;"></line><line transform="translate(67,0)" x2="0" y2="5" style="fill: none; stroke: #888; stroke-width: 1; opacity: 1;"></line><line transform="translate(100,0)" x2="0" y2="5" style="fill: none; stroke: #888; stroke-width: 1; opacity: 1;"></line><line transform="translate(133,0)" x2="0" y2="5" style="fill: none; stroke: #888; stroke-width: 1; opacity: 1;"></line><line transform="translate(167,0)" x2="0" y2="5" style="fill: none; stroke: #888; stroke-width: 1; opacity: 1;"></line><line transform="translate(200,0)" x2="0" y2="5" style="fill: none; stroke: #888; stroke-width: 1; opacity: 1;"></line></g><g class="mark-text role-axis-label" style="pointer-events: none;"><text text-anchor="start" transform="translate(0,15)" style="font-family: sans-serif; font-size: 10px; fill: #000; opacity: 1;">1970</text><text text-anchor="middle" transform="translate(33.31051791010724,15)" style="font-family: sans-serif; font-size: 10px; fill: #000; opacity: 0;">1972</text><text text-anchor="middle" transform="translate(66.66666666666666,15)" style="font-family: sans-serif; font-size: 10px; fill: #000; opacity: 1;">1974</text><text text-anchor="middle" transform="translate(99.97718457677391,15)" style="font-family: sans-serif; font-size: 10px; fill: #000; opacity: 0;">1976</text><text text-anchor="middle" transform="translate(133.33333333333331,15)" style="font-family: sans-serif; font-size: 10px; fill: #000; opacity: 1;">1978</text><text text-anchor="middle" transform="translate(166.64385124344057,15)" style="font-family: sans-serif; font-size: 10px; fill: #000; opacity: 0;">1980</text><text text-anchor="end" transform="translate(200,15)" style="font-family: sans-serif; font-size: 10px; fill: #000; opacity: 1;">1982</text></g><g class="mark-rule role-axis-domain" style="pointer-events: none;"><line transform="translate(0,0)" x2="200" y2="0" style="fill: none; stroke: #888; stroke-width: 1; opacity: 1;"></line></g><g class="mark-text role-axis-title" style="pointer-events: none;"><text text-anchor="middle" transform="translate(100,31)" style="font-family: sans-serif; font-size: 11px; font-weight: bold; fill: #000; opacity: 1;">Year (year)</text></g></g></g></g><g class="mark-group role-axis"><g transform="translate(0.5,0.5)"><path class="background" d="M0,0h0v0h0Z" style="pointer-events: none; fill: none;"></path><g><g class="mark-rule role-axis-tick" style="pointer-events: none;"><line transform="translate(0,191)" x2="-5" y2="0" style="fill: none; stroke: #888; stroke-width: 1; opacity: 1;"></line><line transform="translate(0,145)" x2="-5" y2="0" style="fill: none; stroke: #888; stroke-width: 1; opacity: 1;"></line><line transform="translate(0,100)" x2="-5" y2="0" style="fill: none; stroke: #888; stroke-width: 1; opacity: 1;"></line><line transform="translate(0,55)" x2="-5" y2="0" style="fill: none; stroke: #888; stroke-width: 1; opacity: 1;"></line><line transform="translate(0,9)" x2="-5" y2="0" style="fill: none; stroke: #888; stroke-width: 1; opacity: 1;"></line></g><g class="mark-text role-axis-label" style="pointer-events: none;"><text text-anchor="end" transform="translate(-7,193.9090909090909)" style="font-family: sans-serif; font-size: 10px; fill: #000; opacity: 1;">15</text><text text-anchor="end" transform="translate(-7,148.45454545454547)" style="font-family: sans-serif; font-size: 10px; fill: #000; opacity: 1;">20</text><text text-anchor="end" transform="translate(-7,103)" style="font-family: sans-serif; font-size: 10px; fill: #000; opacity: 1;">25</text><text text-anchor="end" transform="translate(-7,57.54545454545453)" style="font-family: sans-serif; font-size: 10px; fill: #000; opacity: 1;">30</text><text text-anchor="end" transform="translate(-7,12.090909090909093)" style="font-family: sans-serif; font-size: 10px; fill: #000; opacity: 1;">35</text></g><g class="mark-rule role-axis-domain" style="pointer-events: none;"><line transform="translate(0,200)" x2="0" y2="-200" style="fill: none; stroke: #888; stroke-width: 1; opacity: 1;"></line></g><g class="mark-text role-axis-title" style="pointer-events: none;"><text text-anchor="middle" transform="translate(-34,100) rotate(-90) translate(0,-2)" style="font-family: sans-serif; font-size: 11px; font-weight: bold; fill: #000; opacity: 1;">Miles per Gallon (95% CIs)</text></g></g></g></g></g></g></g></g></svg>