<svg class="marks" width="259" height="245" viewBox="0 0 259 245" version="1.1" xmlns="http://www.w3.org/2000/svg" xmlns:xlink="http://www.w3.org/1999/xlink"><g transform="translate(52,5)"><g class="mark-group role-frame root"><g transform="translate(0,0)"><path class="background" d="M0.5,0.5h200v200h-200Z" style="fill: none; stroke: #ddd;"></path><g><g class="mark-group role-axis"><g transform="translate(0.5,200.5)"><path class="background" d="M0,0h0v0h0Z" style="pointer-events: none; fill: none;"></path><g><g class="mark-rule role-axis-grid" style="pointer-events: none;"><line transform="translate(0,-200)" x2="0" y2="200" style="fill: none; stroke: #ddd; stroke-width: 1; opacity: 1;"></line><line transform="translate(33,-200)" x2="0" y2="200" style="fill: none; stroke: #ddd; stroke-width: 1; opacity: 1;"></line><line transform="translate(67,-200)" x2="0" y2="200" style="fill: none; stroke: #ddd; stroke-width: 1; opacity: 1;"></line><line transform="translate(100,-200)" x2="0" y2="200" style="fill: none; stroke: #ddd; stroke-width: 1; opacity: 1;"></line><line transform="translate(133,-200)" x2="0" y2="200" style="fill: none; stroke: #ddd; stroke-width: 1; opacity: 1;"></line><line transform="translate(167,-200)" x2="0" y2="200" style="fill: none; stroke: #ddd; stroke-width: 1; opacity: 1;"></line><line transform="translate(200,-200)" x2="0" y2="200" style="fill: none; stroke: #ddd; stroke-width: 1; opacity: 1;"></line></g></g></g></g><g class="mark-group role-axis"><g transform="translate(0.5,0.5)"><path class="background" d="M0,0h0v0h0Z" style="pointer-events: none; fill: none;"></path><g><g class="mark-rule role-axis-grid" style="pointer-events: none;"><line transform="translate(0,192)" x2="200" y2="0" style="fill: none; stroke: #ddd; stroke-width: 1; opacity: 1;"></line><line transform="translate(0,150)" x2="200" y2="0" style="fill: none; stroke: #ddd; stroke-width: 1; opacity: 1;"></line><line transform="translate(0,108)" x2="200" y2="0" style="fill: none; stroke: #ddd; stroke-width: 1; opacity: 1;"></line><line transform="translate(0,67)" x2="200" y2="0" style="fill: none; stroke: #ddd; stroke-width: 1; opacity: 1;"></line><line transform="translate(0,25)" x2="200" y2="0" style="fill: none; stroke: #ddd; stroke-width: 1; opacity: 1;"></line></g></g></g></g><g class="mark-area role-mark layer_0_layer_0_marks"><path d="M200,69.82118055555554L166.64385124344057,57.071839080459796L149.98859228838694,128.73850574712642L133.33333333333331,133.56655092592587L116.67807437827973,141.52901785714283L99.97718457677391,153.31188725490196L83.32192562172028,161.38888888888889L66.66666666666666,146.60493827160494L50.01140771161305,185.83333333333334L33.31051791010724,177.38839285714286L16.65525895505362,158.93601190476193L0,185.91954022988506L0,153.1537356321839L16.65525895505362,118.44494047619051L33.31051791010724,143.75L50.01140771161305,162.08333333333331L66.66666666666666,106.4814814814815L83.32192562172028,132.49305555555554L99.97718457677391,120.22058823529412L116.67807437827973,100.5952380952381L133.33333333333331,96.34085648148147L149.98859228838694,86.11637931034484L166.64385124344057,13.963362068965523L200,46.580555555555605Z" style="fill: #4c78a8; opacity: 0.3;"></path></g><g class="mark-line role-mark layer_0_layer_1_marks"><path d="M200,69.82118055555554L166.64385124344057,57.071839080459796L149.98859228838694,128.73850574712642L133.33333333333331,133.56655092592587L116.67807437827973,141.52901785714283L99.97718457677391,153.31188725490196L83.32192562172028,161.38888888888889L66.66666666666666,146.60493827160494L50.01140771161305,185.83333333333334L33.31051791010724,177.38839285714286L16.65525895505362,158.93601190476193L0,185.91954022988506" style="fill: none; stroke: #4c78a8; stroke-width: 2; stroke-dasharray: 6,4; opacity: 0.5;"></path></g><g class="mark-line role-mark layer_0_layer_2_marks"><path d="M200,46.580555555555605L166.64385124344057,13.963362068965523L149.98859228838694,86.11637931034484L133.33333333333331,96.34085648148147L116.67807437827973,100.5952380952381L99.97718457677391,120.22058823529412L83.32192562172028,132.49305555555554L66.66666666666666,106.4814814814815L50.01140771161305,162.08333333333331L33.31051791010724,143.75L16.65525895505362,118.44494047619051L0,153.1537356321839" style="fill: none; stroke: #4c78a8; stroke-width: 2; stroke-dasharray: 6,4; opacity: 0.5;"></path></g><g class="mark-line role-mark layer_1_marks"><path d="M200,57.95833333333326L166.64385124344057,35.862068965517324L149.98859228838694,107.55747126436782L133.33333333333331,116.15740740740742L116.67807437827973,121.87499999999994L99.97718457677391,136.88725490196077L83.32192562172028,147.77777777777774L66.66666666666666,127.4691358024691L50.01140771161305,174.16666666666666L33.31051791010724,160.7142857142857L16.65525895505362,139.58333333333331L0,169.25287356321837" style="fill: none; stroke: #4c78a8; stroke-width: 2;"></path></g><g class="mark-group role-axis"><g transform="translate(0.5,200.5)"><path class="background" d="M0,0h0v0h0Z" style="pointer-events: none; fill: none;"></path><g><g class="mark-rule role-axis-tick" style="pointer-events: none;"><line transform="translate(0,0)" x2="0" y2="5" style="fill: none; stroke: #888; stroke-width: 1; opacity: 1;"></line><line transform="translate(33,0)" x2="0" y2="5" style="fill: none; stroke: #888; stroke-width: 1; opacity: 1;"></line><line transform="translate(67,0)" x2="0" y2="5" style="fill: none; stroke: #888; stroke-width: 1; opacity: 1;"></line><line transform="translate(100,0)" x2="0" y2="5" style="fill: none; stroke: #888; stroke-width: 1; opacity: 1;"></line><line transform="translate(133,0)" x2="0" y2="5" style="fill: none; stroke: #888; stroke-width: 1; opacity: 1;"></line><line transform="translate(167,0)" x2="0" y2="5" style="fill: none; stroke: #888; stroke-width: 1; opacity: 1;"></line><line transform="translate(200,0)" x2="0" y2="5" style="fill: none; stroke: #888; stroke-width: 1; opacity: 1;"></line></g><g class="mark-text role-axis-label" style="pointer-events: none;"><text text-anchor="start" transform="translate(0,15)" style="font-family: sans-serif; font-size: 10px; fill: #000; opacity: 1;">1970</text><text text-anchor="middle" transform="translate(33.31051791010724,15)" style="font-family: sans-serif; font-size: 10px; fill: #000; opacity: 0;">1972</text><text text-anchor="middle" transform="translate(66.66666666666666,15)" style="font-family: sans-serif; font-size: 10px; fill: #000; opacity: 1;">1974</text><text text-anchor="middle" transform="translate(99.97718457677391,15)" style="font-family: sans-serif; font-size: 10px; fill: #000; opacity: 0;">1976</text><text text-anchor="middle" transform="translate(133.33333333333331,15)" style="font-family: sans-serif; font-size: 10px; fill: #000; opacity: 1;">1978</text><text text-anchor="middle" transform="translate(166.64385124344057,15)" style="font-family: sans-serif; font-size: 10px; fill: #000; opacity: 0;">1980</text><text text-anchor="end" transform="translate(200,15)" style="font-family: sans-serif; font-size: 10px; fill: #000; opacity: 1;">1982</text></g><g class="mark-rule role-axis-domain" style="pointer-events: none;"><line transform="translate(0,0)" x2="200" y2="0" style="fill: none; stroke: #888; stroke-width: 1; opacity: 1;"></line></g><g class="mark-text role-axis-title" style="pointer-events: none;"><text text-anchor="middle" transform="translate(100,31)" style="font-family: sans-serif; font-size: 11px; font-weight: bold; fill: #000; opacity: 1;">Year (year)</text></g></g></g></g><g class="mark-group role-axis"><g transform="translate(0.5,0.5)"><path class="background" d="M0,0h0v0h0Z" style="pointer-events: none; fill: none;"></path><g><g class="mark-rule role-axis-tick" style="pointer-events: none;"><line transform="translate(0,192)" x2="-5" y2="0" style="fill: none; stroke: #888; stroke-width: 1; opacity: 1;"></line><line transform="translate(0,150)" x2="-5" y2="0" style="fill: none; stroke: #888; stroke-width: 1; opacity: 1;"></line><line transform="translate(0,108)" x2="-5" y2="0" style="fill: none; stroke: #888; stroke-width: 1; opacity: 1;"></line><line transform="translate(0,67)" x2="-5" y2="0" style="fill: none; stroke: #888; stroke-width: 1; opacity: 1;"></line><line transform="translate(0,25)" x2="-5" y2="0" style="fill: none; stroke: #888; stroke-width: 1; opacity: 1;"></line></g><g class="mark-text role-axis-label" style="pointer-events: none;"><text text-anchor="end" transform="translate(-7,194.66666666666666)" style="font-family: sans-serif; font-size: 10px; fill: #000; opacity: 1;">15</text><text text-anchor="end" transform="translate(-7,153)" style="font-family: sans-serif; font-size: 10px; fill: #000; opacity: 1;">20</text><text text-anchor="end" transform="translate(-7,111.33333333333334)" style="font-family: sans-serif; font-size: 10px; fill: #000; opacity: 1;">25</text><text text-anchor="end" transform="translate(-7,69.66666666666669)" style="font-family: sans-serif; font-size: 10px; fill: #000; opacity: 1;">30</text><text text-anchor="end" transform="translate(-7,28)" style="font-family: sans-serif; font-size: 10px; fill: #000; opacity: 1;">35</text></g><g class="mark-rule role-axis-domain" style="pointer-events: none;"><line transform="translate(0,200)" x2="0" y2="-200" style="fill: none; stroke: #888; stroke-width: 1; opacity: 1;"></line></g><g class="mark-text role-axis-title" style="pointer-events: none;"><text text-anchor="middle" transform="translate(-34,100) rotate(-90) translate(0,-2)" style="font-family: sans-serif; font-size: 11px; font-weight: bold; fill: #000; opacity: 1;">Miles per Gallon (95% CIs)</text></g></g></g></g></g></g></g></g></svg>