<svg class="marks" width="880" height="551" viewBox="0 0 880 551" version="1.1" xmlns="http://www.w3.org/2000/svg" xmlns:xlink="http://www.w3.org/1999/xlink"><g transform="translate(52,11)"><g class="mark-group role-frame root"><g transform="translate(0,0)"><path class="background" d="M0.5,0.5h800v500h-800Z" style="fill: none; stroke: #ddd;"></path><g><g class="mark-group role-axis"><g transform="translate(0.5,500.5)"><path class="background" d="M0,0h0v0h0Z" style="pointer-events: none; fill: none;"></path><g><g class="mark-rule role-axis-grid" style="pointer-events: none;"><line transform="translate(0,-500)" x2="0" y2="500" style="fill: none; stroke: #ddd; stroke-width: 1; opacity: 1;"></line><line transform="translate(80,-500)" x2="0" y2="500" style="fill: none; stroke: #ddd; stroke-width: 1; opacity: 1;"></line><line transform="translate(160,-500)" x2="0" y2="500" style="fill: none; stroke: #ddd; stroke-width: 1; opacity: 1;"></line><line transform="translate(240,-500)" x2="0" y2="500" style="fill: none; stroke: #ddd; stroke-width: 1; opacity: 1;"></line><line transform="translate(320,-500)" x2="0" y2="500" style="fill: none; stroke: #ddd; stroke-width: 1; opacity: 1;"></line><line transform="translate(400,-500)" x2="0" y2="500" style="fill: none; stroke: #ddd; stroke-width: 1; opacity: 1;"></line><line transform="translate(480,-500)" x2="0" y2="500" style="fill: none; stroke: #ddd; stroke-width: 1; opacity: 1;"></line><line transform="translate(560,-500)" x2="0" y2="500" style="fill: none; stroke: #ddd; stroke-width: 1; opacity: 1;"></line><line transform="translate(640,-500)" x2="0" y2="500" style="fill: none; stroke: #ddd; stroke-width: 1; opacity: 1;"></line><line transform="translate(720,-500)" x2="0" y2="500" style="fill: none; stroke: #ddd; stroke-width: 1; opacity: 1;"></line><line transform="translate(800,-500)" x2="0" y2="500" style="fill: none; stroke: #ddd; stroke-width: 1; opacity: 1;"></line></g></g></g></g><g class="mark-group role-axis"><g transform="translate(0.5,0.5)"><path class="background" d="M0,0h0v0h0Z" style="pointer-events: none; fill: none;"></path><g><g class="mark-rule role-axis-grid" style="pointer-events: none;"><line transform="translate(0,500)" x2="800" y2="0" style="fill: none; stroke: #ddd; stroke-width: 1; opacity: 1;"></line><line transform="translate(0,450)" x2="800" y2="0" style="fill: none; stroke: #ddd; stroke-width: 1; opacity: 1;"></line><line transform="translate(0,400)" x2="800" y2="0" style="fill: none; stroke: #ddd; stroke-width: 1; opacity: 1;"></line><line transform="translate(0,350)" x2="800" y2="0" style="fill: none; stroke: #ddd; stroke-width: 1; opacity: 1;"></line><line transform="translate(0,300)" x2="800" y2="0" style="fill: none; stroke: #ddd; stroke-width: 1; opacity: 1;"></line><line transform="translate(0,250)" x2="800" y2="0" style="fill: none; stroke: #ddd; stroke-width: 1; opacity: 1;"></line><line transform="translate(0,200)" x2="800" y2="0" style="fill: none; stroke: #ddd; stroke-width: 1; opacity: 1;"></line><line transform="translate(0,150)" x2="800" y2="0" style="fill: none; stroke: #ddd; stroke-width: 1; opacity: 1;"></line><line transform="translate(0,100)" x2="800" y2="0" style="fill: none; stroke: #ddd; stroke-width: 1; opacity: 1;"></line><line transform="translate(0,50)" x2="800" y2="0" style="fill: none; stroke: #ddd; stroke-width: 1; opacity: 1;"></line><line transform="translate(0,0)" x2="800" y2="0" style="fill: none; stroke: #ddd; stroke-width: 1; opacity: 1;"></line></g></g></g></g><g class="mark-group role-scope layer_0_pathgroup"><g transform="translate(0,0)"><path class="background" d="M0,0h800v500h-800Z" style="fill: none;"></path><g><g class="mark-line role-mark layer_0_marks"><path d="M793.3333333333333,472.1000000000001L786.6666666666667,475.95L780,483.3000000000001L773.3333333333333,480.8000000000001L766.6666666666667,475.99999999999994L760,467.2999999999999L753.3333333333334,459.2500000000001L746.6666666666666,458.5499999999999L740,461.39999999999986L733.3333333333333,466.7500000000001L726.6666666666667,467.5999999999999L720,472.1000000000001L713.3333333333333,476.6499999999999L706.6666666666667,483.3500000000001L693.3333333333333,483.9500000000001L686.6666666666667,475.34999999999997L680,470.69999999999993L666.6666666666667,462.45000000000005L660,462.7000000000001L653.3333333333334,471.50000000000006" style="fill: none; stroke: #1d1147; stroke-width: 2;"></path></g></g></g><g transform="translate(0,0)"><path class="background" d="M0,0h800v500h-800Z" style="fill: none;"></path><g><g class="mark-line role-mark layer_0_marks"><path d="M793.3333333333333,429.4L786.6666666666667,435.7499999999999L780,441.10000000000014L773.3333333333333,438.1L766.6666666666667,431.6999999999999L760,420.6L753.3333333333334,416.50000000000006L746.6666666666666,413.1L740,416.6999999999999L733.3333333333333,421.85L726.6666666666667,427.8999999999999L720,430L713.3333333333333,435.55000000000007L706.6666666666667,443.40000000000003L700,448.75L693.3333333333333,448.3500000000001L686.6666666666667,439.44999999999993L680,429.30000000000007L673.3333333333333,423.19999999999993L666.6666666666667,422.15000000000003L660,424.9000000000001L653.3333333333334,430.55000000000007L646.6666666666666,434.30000000000007L640,437.15000000000003L633.3333333333334,440.2000000000001L626.6666666666666,446.3499999999999L620,453.05000000000007L613.3333333333334,453.75L606.6666666666666,445.3999999999999L600,437.24999999999994L593.3333333333334,429.5500000000001L586.6666666666666,425L580,427.8999999999999L573.3333333333334,434.7999999999999L566.6666666666666,437.5L560,438.3500000000001L553.3333333333334,444.85000000000014L546.6666666666666,451.10000000000014L540,459.4999999999999L533.3333333333334,456.80000000000007L526.6666666666666,448.19999999999993L520,438.05000000000007L513.3333333333334,431.25L506.66666666666663,429.6000000000001L500,431.50000000000006L493.33333333333337,438.05000000000007L486.66666666666663,442.0500000000001L480,446.9L473.3333333333333,452.8999999999999L466.66666666666663,455.65L459.99999999999994,463.49999999999994L453.3333333333333,460.90000000000003L446.6666666666667,455.65L440.00000000000006,443.9500000000001L433.33333333333337,440.65L426.6666666666667,439.1499999999999L420,439.30000000000007L413.33333333333337,445.55000000000007L406.66666666666663,447.8L400,452.8L393.33333333333337,456.4500000000001L386.66666666666663,461.59999999999997L380,465.65L373.3333333333333,466.50000000000006L366.66666666666663,456.55L360,447.8L353.33333333333337,440.55000000000007L346.66666666666663,438.70000000000005L320,452.15000000000003L313.3333333333333,458.2499999999999L306.6666666666667,464.65000000000003L300,470.04999999999995L293.3333333333333,468.9500000000001L286.6666666666667,461.1500000000001L280,451.29999999999995L273.3333333333333,442.5999999999999L266.6666666666667,438.75L260,443.05000000000007L253.33333333333331,450.69999999999993L246.66666666666669,454.65000000000003L240,456.29999999999995L233.33333333333331,461.50000000000006L226.66666666666666,466.55L220.00000000000003,472.8999999999999L213.33333333333334,468.75L206.66666666666669,463.0000000000001L200,451.94999999999993L193.33333333333331,446.9L186.66666666666666,444.9000000000001L180,447.15000000000003L173.33333333333331,451.59999999999997L166.66666666666669,457.24999999999994L160,460.3L153.33333333333331,464.95000000000005L146.66666666666669,469.4999999999999L140,473.45L133.33333333333331,475.04999999999995L126.66666666666669,466.0499999999999L120,457.15000000000003L113.33333333333333,451.1500000000001L106.66666666666667,447.1000000000001L100,452.5999999999999L93.33333333333333,457.2999999999999L86.66666666666666,461.50000000000006L80,465.5000000000001L73.33333333333333,469.05L66.66666666666667,475L60,480.8500000000001L53.333333333333336,479.1499999999999L46.666666666666664,470.5000000000001L40,459.09999999999997L33.333333333333336,452.0500000000001L26.666666666666668,449.7999999999999L20,454.85000000000014L13.333333333333334,462.1000000000001L6.666666666666667,465.0999999999999L0,467.84999999999997" style="fill: none; stroke: #51127c; stroke-width: 2;"></path></g></g></g><g transform="translate(0,0)"><path class="background" d="M0,0h800v500h-800Z" style="fill: none;"></path><g><g class="mark-line role-mark layer_0_marks"><path d="M793.3333333333333,366.3499999999999L786.6666666666667,373.5499999999999L780,380.69999999999993L773.3333333333333,380.3999999999999L766.6666666666667,369.5500000000001L760,361.3499999999999L753.3333333333334,353.5499999999999L746.6666666666666,352.64999999999986L740,355.6L733.3333333333333,360.2000000000001L726.6666666666667,366.20000000000005L720,368.8499999999999L713.3333333333333,375.25000000000006L706.6666666666667,380.3999999999999L700,387.24999999999994L693.3333333333333,386.20000000000005L686.6666666666667,376.59999999999997L680,367.2999999999999L673.3333333333333,360.55000000000007L666.6666666666667,359.95000000000005L660,361.20000000000005L653.3333333333334,366.80000000000007L646.6666666666666,373.1L640,375.14999999999986L633.3333333333334,380.7499999999999L626.6666666666666,388.0000000000001L620,394.1999999999999L613.3333333333334,392.0500000000001L606.6666666666666,386.25L600,375.3999999999999L593.3333333333334,368.6500000000001L586.6666666666666,366.25L580,369.65000000000003L573.3333333333334,376.50000000000006L566.6666666666666,382.8999999999999L560,385.34999999999997L553.3333333333334,391.59999999999997L546.6666666666666,398.45L540,405.3L533.3333333333334,403.49999999999994L526.6666666666666,395.3L520,384.74999999999994L513.3333333333334,378.3500000000001L506.66666666666663,375.6L500,377.1000000000001L493.33333333333337,382.5L486.66666666666663,387.2L480,391.25L473.3333333333333,396.20000000000005L466.66666666666663,402.54999999999995L459.99999999999994,408.3000000000001L453.3333333333333,407.2L446.6666666666667,399.7L440.00000000000006,390.5000000000001L433.33333333333337,381.9999999999999L426.6666666666667,380.14999999999986L420,383.45L413.33333333333337,389.7999999999999L406.66666666666663,393.0000000000001L400,398.0000000000001L393.33333333333337,402.15000000000003L386.66666666666663,407.7000000000001L380,413.15L373.3333333333333,412.84999999999997L366.66666666666663,403.05000000000007L360,394.09999999999997L353.33333333333337,388.75L346.66666666666663,384.5500000000001L340,386.7500000000001L333.33333333333337,392.5999999999999L326.6666666666667,396.4500000000001L320,403.2499999999999L313.3333333333333,406.80000000000007L306.6666666666667,409.1999999999999L300,414.09999999999997L293.3333333333333,412.45000000000005L286.6666666666667,403.45L280,395.65L273.3333333333333,389.65000000000003L266.6666666666667,387.5999999999999L260,392.5L253.33333333333331,398.49999999999994L246.66666666666669,402.2L240,407.24999999999994L233.33333333333331,412.24999999999994L226.66666666666666,417.5L220.00000000000003,424.00000000000006L213.33333333333334,425.8000000000001L206.66666666666669,418.40000000000003L200,409.7999999999999L193.33333333333331,404.5500000000001L186.66666666666666,399.65000000000003L180,401.3499999999999L173.33333333333331,411.25L166.66666666666669,411.85L160,416.1500000000001L153.33333333333331,419.95000000000005L146.66666666666669,425.99999999999994L140,432.2L133.33333333333331,433.19999999999993L126.66666666666669,422.84999999999997L120,413.19999999999993L113.33333333333333,407.15000000000003L106.66666666666667,405.3999999999999L100,411.0499999999999L93.33333333333333,414.1499999999999L86.66666666666666,416.59999999999997L80,419.1499999999999L73.33333333333333,424.35L66.66666666666667,429.95000000000005L60,434.65000000000003L53.333333333333336,434.4999999999999L46.666666666666664,426.55L40,418.3000000000001L33.333333333333336,411.6499999999999L26.666666666666668,409.6000000000001L20,409.30000000000007L13.333333333333334,415.34999999999997L6.666666666666667,420.0999999999999L0,424.7" style="fill: none; stroke: #832681; stroke-width: 2;"></path></g></g></g><g transform="translate(0,0)"><path class="background" d="M0,0h800v500h-800Z" style="fill: none;"></path><g><g class="mark-line role-mark layer_0_marks"><path d="M793.3333333333333,287.4000000000001L786.6666666666667,293.49999999999994L780,300.04999999999995L773.3333333333333,300.99999999999994L766.6666666666667,291.6499999999999L760,280.5000000000001L753.3333333333334,274.4L746.6666666666666,271.6499999999999L740,272.8999999999999L733.3333333333333,281.59999999999997L726.6666666666667,284.65000000000003L720,286.20000000000005L713.3333333333333,293.3000000000001L706.6666666666667,299.65000000000003L700,305.6L693.3333333333333,306.3499999999999L686.6666666666667,297.84999999999997L680,288.1L673.3333333333333,281.0499999999999L666.6666666666667,278.89999999999986L660,282.0500000000001L653.3333333333334,288.89999999999986L646.6666666666666,291.3499999999999L640,297.84999999999997L633.3333333333334,305.2000000000001L626.6666666666666,310.95L620,318.19999999999993L613.3333333333334,317.8L606.6666666666666,309.4999999999999L600,302.45000000000005L593.3333333333334,293.70000000000005L586.6666666666666,290.7499999999999L580,295.04999999999995L573.3333333333334,302.9499999999999L566.6666666666666,307.5999999999999L560,309.9000000000001L553.3333333333334,315.5000000000001L546.6666666666666,321.6999999999999L540,329.1499999999999L533.3333333333334,325.7499999999999L526.6666666666666,320.5000000000001L520,310.3L513.3333333333334,302.24999999999994L506.66666666666663,298.89999999999986L500,302.24999999999994L493.33333333333337,310.7499999999999L486.66666666666663,315.25000000000006L480,318.49999999999994L473.3333333333333,322.2L466.66666666666663,328.79999999999995L459.99999999999994,335.99999999999994L453.3333333333333,334.5500000000001L446.6666666666667,326.59999999999997L440.00000000000006,317.2L433.33333333333337,308.75L426.6666666666667,305.34999999999997L420,308.2499999999999L413.33333333333337,312.8999999999999L406.66666666666663,320.04999999999995L400,325.14999999999986L393.33333333333337,328.89999999999986L386.66666666666663,335.0999999999999L380,343.2499999999999L373.3333333333333,344.65000000000003L366.66666666666663,333.60000000000014L360,323.05000000000007L353.33333333333337,315.99999999999994L346.66666666666663,312.84999999999997L340,314.7L333.33333333333337,323.60000000000014L326.6666666666667,327.5L320,331.50000000000006L313.3333333333333,335.04999999999995L306.6666666666667,344.2500000000001L300,350.04999999999995L293.3333333333333,350.69999999999993L286.6666666666667,338.1L280,330.0999999999999L273.3333333333333,323.40000000000003L266.6666666666667,321.20000000000005L260,325.3L253.33333333333331,334.4999999999999L246.66666666666669,337.4000000000001L240,343.1L233.33333333333331,347.54999999999995L226.66666666666666,353.70000000000005L220.00000000000003,360.69999999999993L213.33333333333334,360.0999999999999L206.66666666666669,350.95L200,339.7L193.33333333333331,333.2499999999999L186.66666666666666,329.30000000000007L180,332.15000000000003L173.33333333333331,336.50000000000006L166.66666666666669,341.94999999999993L160,346.25L153.33333333333331,351.94999999999993L146.66666666666669,358.19999999999993L140,365.69999999999993L133.33333333333331,366.55L126.66666666666669,357.84999999999997L120,347.54999999999995L113.33333333333333,338.75L106.66666666666667,335.4499999999999L100,337.45000000000005L93.33333333333333,343.1L86.66666666666666,347.5999999999999L80,353.79999999999995L73.33333333333333,358.9500000000001L66.66666666666667,364.4999999999999L60,369.9000000000001L53.333333333333336,370.6L46.666666666666664,361.9999999999999L40,352.2L33.333333333333336,344.1499999999999L26.666666666666668,342.64999999999986L20,346.1500000000001L13.333333333333334,349.65000000000003L6.666666666666667,358.19999999999993L0,359.95000000000005" style="fill: none; stroke: #b73779; stroke-width: 2;"></path></g></g></g><g transform="translate(0,0)"><path class="background" d="M0,0h800v500h-800Z" style="fill: none;"></path><g><g class="mark-line role-mark layer_0_marks"><path d="M793.3333333333333,210L786.6666666666667,216.59999999999997L780,224.35000000000002L773.3333333333333,226.85000000000002L766.6666666666667,215.34999999999997L760,203.6500000000001L753.3333333333334,198.2499999999999L746.6666666666666,195L740,194.30000000000007L733.3333333333333,202.05000000000013L726.6666666666667,205.64999999999998L720,209.2500000000001L713.3333333333333,215.14999999999986L706.6666666666667,222.7000000000001L700,228.8499999999999L693.3333333333333,230.5000000000001L686.6666666666667,221.10000000000014L680,211.80000000000007L673.3333333333333,205.60000000000002L666.6666666666667,203.49999999999994L660,206.94999999999993L653.3333333333334,213.45L646.6666666666666,219.2500000000001L640,223.35000000000008L633.3333333333334,228.60000000000014L626.6666666666666,237.84999999999997L620,246.1500000000001L613.3333333333334,249.04999999999998L606.6666666666666,237.5L600,227.64999999999986L593.3333333333334,221.85000000000002L586.6666666666666,215.99999999999994L580,218.19999999999993L573.3333333333334,227.2L566.6666666666666,230.04999999999995L560,234.09999999999997L553.3333333333334,238.35000000000008L546.6666666666666,246.20000000000002L540,251.94999999999993L533.3333333333334,252.75000000000006L526.6666666666666,242.5999999999999L520,231.7500000000001L513.3333333333334,225.14999999999986L506.66666666666663,222.94999999999987L500,226.4500000000001L493.33333333333337,229.9000000000001L486.66666666666663,233.79999999999995L480,239.74999999999994L473.3333333333333,246.50000000000006L466.66666666666663,252.2L459.99999999999994,261.20000000000005L453.3333333333333,259.74999999999994L446.6666666666667,252.75000000000006L440.00000000000006,240.55000000000007L433.33333333333337,233.70000000000005L426.6666666666667,230.99999999999994L420,232.75000000000006L413.33333333333337,241.80000000000007L406.66666666666663,245L400,250.14999999999986L393.33333333333337,254.7999999999999L386.66666666666663,262.1000000000001L380,270L373.3333333333333,270.8000000000001L366.66666666666663,262.5999999999999L360,252.24999999999994L353.33333333333337,245.3L346.66666666666663,241.55L340,243.70000000000005L333.33333333333337,250.14999999999986L326.6666666666667,255.44999999999987L320,258.15L313.3333333333333,265.99999999999994L306.6666666666667,273.3500000000001L300,280.04999999999995L293.3333333333333,281.55L286.6666666666667,272.4000000000001L280,262.15000000000003L273.3333333333333,251.9999999999999L266.6666666666667,248.60000000000016L260,252.7000000000001L253.33333333333331,258.1L246.66666666666669,264.1999999999999L240,266.50000000000006L233.33333333333331,273.0000000000001L226.66666666666666,279.1999999999999L220.00000000000003,283.45L213.33333333333334,284.95000000000005L206.66666666666669,275L200,264.9000000000001L193.33333333333331,253.75L186.66666666666666,251.69999999999987L180,254.2500000000001L173.33333333333331,260.95L166.66666666666669,266.39999999999986L160,270.04999999999995L153.33333333333331,275.04999999999995L146.66666666666669,281.25L140,288.9500000000001L133.33333333333331,289.2500000000001L126.66666666666669,279.9000000000001L120,269.1499999999999L113.33333333333333,258.79999999999995L106.66666666666667,253.30000000000013L100,256.9999999999999L93.33333333333333,264.1999999999999L86.66666666666666,271.25L80,276.39999999999986L73.33333333333333,278.9500000000001L66.66666666666667,285.8500000000001L60,294.09999999999997L53.333333333333336,295.2000000000001L46.666666666666664,285.4499999999999L40,275.95L33.333333333333336,268.8499999999999L26.666666666666668,264.1999999999999L20,269.00000000000006L13.333333333333334,273.1L6.666666666666667,276.50000000000006L0,281.6999999999999" style="fill: none; stroke: #e75263; stroke-width: 2;"></path></g></g></g><g transform="translate(0,0)"><path class="background" d="M0,0h800v500h-800Z" style="fill: none;"></path><g><g class="mark-line role-mark layer_0_marks"><path d="M793.3333333333333,112.54999999999995L786.6666666666667,119.74999999999994L780,128.35000000000008L773.3333333333333,126.75000000000011L766.6666666666667,119.60000000000008L760,109.65000000000003L753.3333333333334,101.89999999999998L746.6666666666666,99.14999999999992L740,102.15000000000003L733.3333333333333,107.45000000000005L726.6666666666667,114.39999999999998L720,116.75000000000011L713.3333333333333,124.44999999999993L706.6666666666667,129.95000000000005L700,136.10000000000014L693.3333333333333,134.55000000000013L686.6666666666667,129.55000000000013L680,118.75L673.3333333333333,109.74999999999994L666.6666666666667,107.45000000000005L660,116.15000000000009L653.3333333333334,120.85000000000008L646.6666666666666,120.80000000000013L640,124.65000000000003L633.3333333333334,131.94999999999993L626.6666666666666,138.19999999999993L620,145.69999999999993L613.3333333333334,145.69999999999993L606.6666666666666,140.80000000000013L600,127.75000000000006L593.3333333333334,120.64999999999998L586.6666666666666,117.94999999999987L580,118.84999999999991L573.3333333333334,128.30000000000013L566.6666666666666,131.4500000000001L560,137.10000000000008L553.3333333333334,141.69999999999987L546.6666666666666,149.30000000000007L540,154.7L533.3333333333334,155.95L526.6666666666666,147.5999999999999L520,138.60000000000014L513.3333333333334,129.85000000000014L506.66666666666663,125.39999999999992L500,128.14999999999998L493.33333333333337,137.2L486.66666666666663,139.9000000000001L480,143.14999999999998L473.3333333333333,150.2000000000001L466.66666666666663,158.45L459.99999999999994,165.99999999999994L453.3333333333333,167.89999999999992L446.6666666666667,156.64999999999992L440.00000000000006,146.64999999999992L433.33333333333337,139.60000000000008L426.6666666666667,138.79999999999995L420,139.74999999999994L413.33333333333337,149.65000000000003L406.66666666666663,151.94999999999993L400,158.30000000000013L393.33333333333337,162.8L386.66666666666663,170.80000000000013L380,178.89999999999986L373.3333333333333,179.74999999999994L366.66666666666663,170.80000000000013L360,161.20000000000005L353.33333333333337,152.24999999999994L346.66666666666663,146.89999999999998L340,147.5L333.33333333333337,158.05000000000007L326.6666666666667,163.19999999999993L320,166.0499999999999L313.3333333333333,171.55L306.6666666666667,178.2499999999999L300,185L293.3333333333333,185.0999999999999L286.6666666666667,177.5999999999999L280,166.94999999999993L273.3333333333333,159.35000000000002L266.6666666666667,158.2499999999999L260,161.7500000000001L253.33333333333331,169.44999999999993L246.66666666666669,171.89999999999998L240,176.59999999999997L233.33333333333331,181.10000000000014L226.66666666666666,189.60000000000008L220.00000000000003,198.75L213.33333333333334,196.50000000000006L206.66666666666669,192.54999999999995L200,179.9000000000001L193.33333333333331,173.0000000000001L186.66666666666666,172.24999999999994L180,175.69999999999993L173.33333333333331,182.4000000000001L166.66666666666669,184.60000000000008L160,187.8L153.33333333333331,193.79999999999995L146.66666666666669,201.59999999999997L140,209.55000000000013L133.33333333333331,210.2000000000001L126.66666666666669,202.24999999999994L120,191.89999999999998L113.33333333333333,183.45L106.66666666666667,179.9000000000001L100,185.69999999999993L93.33333333333333,189.39999999999998L86.66666666666666,192.5L80,198.60000000000014L73.33333333333333,202.35000000000014L66.66666666666667,208.5499999999999L60,216.3499999999999L53.333333333333336,216.89999999999998L46.666666666666664,209.39999999999998L40,199.39999999999998L33.333333333333336,191.55L26.666666666666668,190.85000000000008L20,191.69999999999987L13.333333333333334,197.45000000000005L6.666666666666667,202.7000000000001L0,204.30000000000007" style="fill: none; stroke: #fc8961; stroke-width: 2;"></path></g></g></g><g transform="translate(0,0)"><path class="background" d="M0,0h800v500h-800Z" style="fill: none;"></path><g><g class="mark-line role-mark layer_0_marks"><path d="M633.3333333333334,16.25L626.6666666666666,24.14999999999992L620,31.800000000000068L613.3333333333334,33.65000000000009L606.6666666666666,23.799999999999955L600,14.000000000000057L593.3333333333334,4.399999999999977L586.6666666666666,0.44999999999987494L580,5.250000000000057L573.3333333333334,14.699999999999989L566.6666666666666,16.800000000000068L560,19.650000000000034L553.3333333333334,27.249999999999943L546.6666666666666,31.800000000000068L540,42.5L533.3333333333334,44.950000000000045L526.6666666666666,38.799999999999955L520,27.5L513.3333333333334,15L506.66666666666663,11.699999999999875L500,12.150000000000034L493.33333333333337,25.749999999999886L486.66666666666663,29.199999999999875L480,36.750000000000114L473.3333333333333,40.55000000000007L466.66666666666663,48.799999999999955L459.99999999999994,58.600000000000136L453.3333333333333,62.5L446.6666666666667,55L440.00000000000006,41.94999999999993L433.33333333333337,35.60000000000002L426.6666666666667,29.499999999999886L420,32.75000000000006L413.33333333333337,42.450000000000045L406.66666666666663,48.44999999999999L400,50.749999999999886L393.33333333333337,56.0499999999999L386.66666666666663,63.899999999999864L380,71.75000000000011L373.3333333333333,73.00000000000011L366.66666666666663,63.9500000000001L360,54.650000000000034L353.33333333333337,43.44999999999999L346.66666666666663,40.60000000000002L340,43.35000000000008L333.33333333333337,52.649999999999864L326.6666666666667,59.499999999999886L320,60.349999999999966L313.3333333333333,65.90000000000003L306.6666666666667,74.05000000000001L300,81.50000000000006L293.3333333333333,83.05000000000007L286.6666666666667,72.94999999999987L280,63.14999999999998L273.3333333333333,55.64999999999998L266.6666666666667,50.09999999999991L260,58.249999999999886L253.33333333333331,63.700000000000045L246.66666666666669,65.74999999999989L240,71.94999999999993L233.33333333333331,78.30000000000013L226.66666666666666,85.25000000000006L220.00000000000003,94.95000000000005L213.33333333333334,94.39999999999998L206.66666666666669,87.2999999999999L200,77.40000000000009L193.33333333333331,70.60000000000002L186.66666666666666,65.64999999999998L180,67.84999999999997L173.33333333333331,78.19999999999993L166.66666666666669,83.24999999999989L160,84.65000000000003L153.33333333333331,90.99999999999994L146.66666666666669,98.79999999999995L140,105.34999999999997L133.33333333333331,105L126.66666666666669,98.9500000000001L120,86.99999999999989L113.33333333333333,81.55000000000001L106.66666666666667,78.60000000000014L100,83.14999999999998L93.33333333333333,87.75000000000006L86.66666666666666,90.39999999999992L80,93.49999999999994L73.33333333333333,100.94999999999999L66.66666666666667,106.64999999999992L60,114.19999999999987L53.333333333333336,115.80000000000013L46.666666666666664,107.40000000000009L40,98.35000000000008L33.333333333333336,88.79999999999995L26.666666666666668,83.89999999999986L20,88.10000000000002L13.333333333333334,94.95000000000005L6.666666666666667,99.65000000000003L0,107.24999999999994" style="fill: none; stroke: #fec488; stroke-width: 2;"></path></g></g></g></g><g class="mark-text role-mark layer_1_marks"><text text-anchor="start" transform="translate(656.3333333333334,481.50000000000006)" style="font-family: sans-serif; font-size: 11px; fill: black;">1958</text><text text-anchor="start" transform="translate(3,477.84999999999997)" style="font-family: sans-serif; font-size: 11px; fill: black;">1960</text><text text-anchor="start" transform="translate(3,434.7)" style="font-family: sans-serif; font-size: 11px; fill: black;">1970</text><text text-anchor="start" transform="translate(3,369.95000000000005)" style="font-family: sans-serif; font-size: 11px; fill: black;">1980</text><text text-anchor="start" transform="translate(3,291.6999999999999)" style="font-family: sans-serif; font-size: 11px; fill: black;">1990</text><text text-anchor="start" transform="translate(3,214.30000000000007)" style="font-family: sans-serif; font-size: 11px; fill: black;">2000</text><text text-anchor="start" transform="translate(3,117.24999999999994)" style="font-family: sans-serif; font-size: 11px; fill: black;">2010</text></g><g class="mark-text role-mark layer_2_marks"><text text-anchor="start" transform="translate(796.3333333333333,471.1000000000001)" style="font-family: sans-serif; font-size: 11px; fill: black;">1959</text><text text-anchor="start" transform="translate(796.3333333333333,428.4)" style="font-family: sans-serif; font-size: 11px; fill: black;">1969</text><text text-anchor="start" transform="translate(796.3333333333333,365.3499999999999)" style="font-family: sans-serif; font-size: 11px; fill: black;">1979</text><text text-anchor="start" transform="translate(796.3333333333333,286.4000000000001)" style="font-family: sans-serif; font-size: 11px; fill: black;">1989</text><text text-anchor="start" transform="translate(796.3333333333333,209)" style="font-family: sans-serif; font-size: 11px; fill: black;">1999</text><text text-anchor="start" transform="translate(796.3333333333333,111.54999999999995)" style="font-family: sans-serif; font-size: 11px; fill: black;">2009</text><text text-anchor="start" transform="translate(636.3333333333334,15.25)" style="font-family: sans-serif; font-size: 11px; fill: black;">2017</text></g><g class="mark-group role-axis"><g transform="translate(0.5,500.5)"><path class="background" d="M0,0h0v0h0Z" style="pointer-events: none; fill: none;"></path><g><g class="mark-rule role-axis-tick" style="pointer-events: none;"><line transform="translate(0,0)" x2="0" y2="5" style="fill: none; stroke: #888; stroke-width: 1; opacity: 1;"></line><line transform="translate(80,0)" x2="0" y2="5" style="fill: none; stroke: #888; stroke-width: 1; opacity: 1;"></line><line transform="translate(160,0)" x2="0" y2="5" style="fill: none; stroke: #888; stroke-width: 1; opacity: 1;"></line><line transform="translate(240,0)" x2="0" y2="5" style="fill: none; stroke: #888; stroke-width: 1; opacity: 1;"></line><line transform="translate(320,0)" x2="0" y2="5" style="fill: none; stroke: #888; stroke-width: 1; opacity: 1;"></line><line transform="translate(400,0)" x2="0" y2="5" style="fill: none; stroke: #888; stroke-width: 1; opacity: 1;"></line><line transform="translate(480,0)" x2="0" y2="5" style="fill: none; stroke: #888; stroke-width: 1; opacity: 1;"></line><line transform="translate(560,0)" x2="0" y2="5" style="fill: none; stroke: #888; stroke-width: 1; opacity: 1;"></line><line transform="translate(640,0)" x2="0" y2="5" style="fill: none; stroke: #888; stroke-width: 1; opacity: 1;"></line><line transform="translate(720,0)" x2="0" y2="5" style="fill: none; stroke: #888; stroke-width: 1; opacity: 1;"></line><line transform="translate(800,0)" x2="0" y2="5" style="fill: none; stroke: #888; stroke-width: 1; opacity: 1;"></line></g><g class="mark-text role-axis-label" style="pointer-events: none;"><text text-anchor="start" transform="translate(0,15)" style="font-family: sans-serif; font-size: 10px; fill: #000; opacity: 1;">0</text><text text-anchor="middle" transform="translate(80,15)" style="font-family: sans-serif; font-size: 10px; fill: #000; opacity: 1;">1</text><text text-anchor="middle" transform="translate(160,15)" style="font-family: sans-serif; font-size: 10px; fill: #000; opacity: 1;">2</text><text text-anchor="middle" transform="translate(240,15)" style="font-family: sans-serif; font-size: 10px; fill: #000; opacity: 1;">3</text><text text-anchor="middle" transform="translate(320,15)" style="font-family: sans-serif; font-size: 10px; fill: #000; opacity: 1;">4</text><text text-anchor="middle" transform="translate(400,15)" style="font-family: sans-serif; font-size: 10px; fill: #000; opacity: 1;">5</text><text text-anchor="middle" transform="translate(480,15)" style="font-family: sans-serif; font-size: 10px; fill: #000; opacity: 1;">6</text><text text-anchor="middle" transform="translate(560,15)" style="font-family: sans-serif; font-size: 10px; fill: #000; opacity: 1;">7</text><text text-anchor="middle" transform="translate(640,15)" style="font-family: sans-serif; font-size: 10px; fill: #000; opacity: 1;">8</text><text text-anchor="middle" transform="translate(720,15)" style="font-family: sans-serif; font-size: 10px; fill: #000; opacity: 1;">9</text><text text-anchor="end" transform="translate(800,15)" style="font-family: sans-serif; font-size: 10px; fill: #000; opacity: 1;">10</text></g><g class="mark-rule role-axis-domain" style="pointer-events: none;"><line transform="translate(0,0)" x2="800" y2="0" style="fill: none; stroke: #888; stroke-width: 1; opacity: 1;"></line></g><g class="mark-text role-axis-title" style="pointer-events: none;"><text text-anchor="middle" transform="translate(400,31)" style="font-family: sans-serif; font-size: 11px; font-weight: bold; fill: #000; opacity: 1;">Year into Decade</text></g></g></g></g><g class="mark-group role-axis"><g transform="translate(0.5,0.5)"><path class="background" d="M0,0h0v0h0Z" style="pointer-events: none; fill: none;"></path><g><g class="mark-rule role-axis-tick" style="pointer-events: none;"><line transform="translate(0,500)" x2="-5" y2="0" style="fill: none; stroke: #888; stroke-width: 1; opacity: 1;"></line><line transform="translate(0,450)" x2="-5" y2="0" style="fill: none; stroke: #888; stroke-width: 1; opacity: 1;"></line><line transform="translate(0,400)" x2="-5" y2="0" style="fill: none; stroke: #888; stroke-width: 1; opacity: 1;"></line><line transform="translate(0,350)" x2="-5" y2="0" style="fill: none; stroke: #888; stroke-width: 1; opacity: 1;"></line><line transform="translate(0,300)" x2="-5" y2="0" style="fill: none; stroke: #888; stroke-width: 1; opacity: 1;"></line><line transform="translate(0,250)" x2="-5" y2="0" style="fill: none; stroke: #888; stroke-width: 1; opacity: 1;"></line><line transform="translate(0,200)" x2="-5" y2="0" style="fill: none; stroke: #888; stroke-width: 1; opacity: 1;"></line><line transform="translate(0,150)" x2="-5" y2="0" style="fill: none; stroke: #888; stroke-width: 1; opacity: 1;"></line><line transform="translate(0,100)" x2="-5" y2="0" style="fill: none; stroke: #888; stroke-width: 1; opacity: 1;"></line><line transform="translate(0,50)" x2="-5" y2="0" style="fill: none; stroke: #888; stroke-width: 1; opacity: 1;"></line><line transform="translate(0,0)" x2="-5" y2="0" style="fill: none; stroke: #888; stroke-width: 1; opacity: 1;"></line></g><g class="mark-text role-axis-label" style="pointer-events: none;"><text text-anchor="end" transform="translate(-7,503)" style="font-family: sans-serif; font-size: 10px; fill: #000; opacity: 1;">310</text><text text-anchor="end" transform="translate(-7,453)" style="font-family: sans-serif; font-size: 10px; fill: #000; opacity: 1;">320</text><text text-anchor="end" transform="translate(-7,403)" style="font-family: sans-serif; font-size: 10px; fill: #000; opacity: 1;">330</text><text text-anchor="end" transform="translate(-7,353)" style="font-family: sans-serif; font-size: 10px; fill: #000; opacity: 1;">340</text><text text-anchor="end" transform="translate(-7,303)" style="font-family: sans-serif; font-size: 10px; fill: #000; opacity: 1;">350</text><text text-anchor="end" transform="translate(-7,253)" style="font-family: sans-serif; font-size: 10px; fill: #000; opacity: 1;">360</text><text text-anchor="end" transform="translate(-7,203)" style="font-family: sans-serif; font-size: 10px; fill: #000; opacity: 1;">370</text><text text-anchor="end" transform="translate(-7,153)" style="font-family: sans-serif; font-size: 10px; fill: #000; opacity: 1;">380</text><text text-anchor="end" transform="translate(-7,103)" style="font-family: sans-serif; font-size: 10px; fill: #000; opacity: 1;">390</text><text text-anchor="end" transform="translate(-7,53)" style="font-family: sans-serif; font-size: 10px; fill: #000; opacity: 1;">400</text><text text-anchor="end" transform="translate(-7,3)" style="font-family: sans-serif; font-size: 10px; fill: #000; opacity: 1;">410</text></g><g class="mark-rule role-axis-domain" style="pointer-events: none;"><line transform="translate(0,500)" x2="0" y2="-500" style="fill: none; stroke: #888; stroke-width: 1; opacity: 1;"></line></g><g class="mark-text role-axis-title" style="pointer-events: none;"><text text-anchor="middle" transform="translate(-34,250) rotate(-90) translate(0,-2)" style="font-family: sans-serif; font-size: 11px; font-weight: bold; fill: #000; opacity: 1;">CO2 concentration in ppm</text></g></g></g></g></g></g></g></g></svg>